<svg xmlns="http://www.w3.org/2000/svg" viewBox="0 0 480 96">
  <defs>
    <linearGradient id="w" x1="0" y1="0" x2="0" y2="1">
      <stop offset="0%" stop-color="#ecfeff"/>
      <stop offset="45%" stop-color="#22d3ee"/>
      <stop offset="100%" stop-color="#0e7490"/>
    </linearGradient>
  </defs>
  <!-- Path outlines only: GitHub strips SVG text and filters -->
  <g fill="url(#w)">
    <path d="M38 72 L56 18 L74 72 M46 52 H66 Z"/>
    <path d="M142 72 V38 H168 Q188 38 188 54 Q188 68 172 72 H142 M152 48 H168 Q176 48 176 54 Q176 60 168 60 H152 Z"/>
    <path d="M246 72 V18 H296 V30 H262 V38 H290 V50 H262 V60 H298 V72 Z"/>
    <path d="M350 72 L368 18 L386 72 M358 52 H378 Z"/>
  </g>
  <circle cx="108" cy="44" r="3.5" fill="#22d3ee"/>
  <circle cx="216" cy="44" r="3.5" fill="#22d3ee"/>
  <circle cx="324" cy="44" r="3.5" fill="#22d3ee"/>
</svg>
